<mxfile host="app.diagrams.net" modified="2024-02-28T20:55:52.572Z" agent="Mozilla/5.0 (Windows NT 10.0; Win64; x64) AppleWebKit/537.36 (KHTML, like Gecko) Chrome/121.0.0.0 Safari/537.36" etag="hbVwg_a1B3PSpUJa4yog" version="23.1.2" type="github">
  <diagram name="Strona-1" id="EeAVUHvUSctApOIpRVnd">
    <mxGraphModel dx="1383" dy="755" grid="1" gridSize="10" guides="1" tooltips="1" connect="1" arrows="1" fold="1" page="1" pageScale="1" pageWidth="827" pageHeight="1169" math="0" shadow="0">
      <root>
        <mxCell id="0" />
        <mxCell id="1" parent="0" />
        <mxCell id="RKdK0y8snVfrUmOb75B6-4" value="" style="sketch=0;pointerEvents=1;shadow=0;dashed=0;html=1;strokeColor=none;fillColor=#434445;aspect=fixed;labelPosition=center;verticalLabelPosition=bottom;verticalAlign=top;align=center;outlineConnect=0;shape=mxgraph.vvd.networking;spacing=2;" vertex="1" parent="1">
          <mxGeometry x="720" y="140" width="50" height="50" as="geometry" />
        </mxCell>
        <mxCell id="RKdK0y8snVfrUmOb75B6-5" value="" style="sketch=0;pointerEvents=1;shadow=0;dashed=0;html=1;strokeColor=none;fillColor=#434445;aspect=fixed;labelPosition=center;verticalLabelPosition=bottom;verticalAlign=top;align=center;outlineConnect=0;shape=mxgraph.vvd.physical_upstream_router;spacing=2;" vertex="1" parent="1">
          <mxGeometry x="600" y="140" width="50" height="50" as="geometry" />
        </mxCell>
        <mxCell id="RKdK0y8snVfrUmOb75B6-6" value="UPC router + WiFi 2.4, 5" style="text;html=1;align=center;verticalAlign=middle;resizable=0;points=[];autosize=1;fillColor=#f5f5f5;fontColor=#333333;strokeColor=#666666;spacing=2;" vertex="1" parent="1">
          <mxGeometry x="550" y="90" width="150" height="30" as="geometry" />
        </mxCell>
        <mxCell id="RKdK0y8snVfrUmOb75B6-7" value="" style="sketch=0;pointerEvents=1;shadow=0;dashed=0;html=1;strokeColor=none;fillColor=#434445;aspect=fixed;labelPosition=center;verticalLabelPosition=bottom;verticalAlign=top;align=center;outlineConnect=0;shape=mxgraph.vvd.wi_fi;spacing=2;" vertex="1" parent="1">
          <mxGeometry x="640" y="120" width="30" height="30" as="geometry" />
        </mxCell>
        <mxCell id="RKdK0y8snVfrUmOb75B6-10" value="" style="endArrow=none;html=1;rounded=0;spacing=2;" edge="1" parent="1" source="RKdK0y8snVfrUmOb75B6-4" target="RKdK0y8snVfrUmOb75B6-5">
          <mxGeometry width="50" height="50" relative="1" as="geometry">
            <mxPoint x="670" y="190" as="sourcePoint" />
            <mxPoint x="500" y="280" as="targetPoint" />
          </mxGeometry>
        </mxCell>
        <mxCell id="RKdK0y8snVfrUmOb75B6-11" value="" style="endArrow=none;html=1;rounded=0;" edge="1" parent="1" target="RKdK0y8snVfrUmOb75B6-5">
          <mxGeometry width="50" height="50" relative="1" as="geometry">
            <mxPoint x="530" y="165" as="sourcePoint" />
            <mxPoint x="530" y="220" as="targetPoint" />
          </mxGeometry>
        </mxCell>
        <mxCell id="RKdK0y8snVfrUmOb75B6-12" value="Work1" style="sketch=0;pointerEvents=1;shadow=0;dashed=0;html=1;strokeColor=none;fillColor=#434445;aspect=fixed;labelPosition=center;verticalLabelPosition=bottom;verticalAlign=top;align=center;outlineConnect=0;shape=mxgraph.vvd.laptop;" vertex="1" parent="1">
          <mxGeometry x="580" y="230" width="50" height="36" as="geometry" />
        </mxCell>
        <mxCell id="RKdK0y8snVfrUmOb75B6-13" value="Work2" style="sketch=0;pointerEvents=1;shadow=0;dashed=0;html=1;strokeColor=none;fillColor=#434445;aspect=fixed;labelPosition=center;verticalLabelPosition=bottom;verticalAlign=top;align=center;outlineConnect=0;shape=mxgraph.vvd.laptop;" vertex="1" parent="1">
          <mxGeometry x="630" y="230" width="50" height="36" as="geometry" />
        </mxCell>
        <mxCell id="RKdK0y8snVfrUmOb75B6-14" value="" style="endArrow=none;html=1;rounded=0;" edge="1" parent="1" source="RKdK0y8snVfrUmOb75B6-12" target="RKdK0y8snVfrUmOb75B6-5">
          <mxGeometry width="50" height="50" relative="1" as="geometry">
            <mxPoint x="480" y="270" as="sourcePoint" />
            <mxPoint x="530" y="220" as="targetPoint" />
          </mxGeometry>
        </mxCell>
        <mxCell id="RKdK0y8snVfrUmOb75B6-15" value="" style="endArrow=none;html=1;rounded=0;" edge="1" parent="1" source="RKdK0y8snVfrUmOb75B6-13" target="RKdK0y8snVfrUmOb75B6-5">
          <mxGeometry width="50" height="50" relative="1" as="geometry">
            <mxPoint x="480" y="270" as="sourcePoint" />
            <mxPoint x="530" y="220" as="targetPoint" />
          </mxGeometry>
        </mxCell>
      </root>
    </mxGraphModel>
  </diagram>
</mxfile>
